<?xml version="1.0"?>
<svg xmlns="http://www.w3.org/2000/svg" xmlns:xlink="http://www.w3.org/1999/xlink" xmlns:svgjs="http://svgjs.com/svgjs" version="1.1" width="512" height="512" x="0" y="0" viewBox="0 0 512 512" style="enable-background:new 0 0 512 512" xml:space="preserve" class=""><g><path xmlns="http://www.w3.org/2000/svg" d="m511.996094 489.445312c-.003906-18.070312-10.75-34.320312-27.378906-41.394531l-127.546876-54.265625v-31.800781c13.503907-16.953125 22.042969-37.144531 24.902344-58.824219h26.074219c24.8125 0 45-20.1875 45-45v-64.511718c0-22.6875-16.882813-41.496094-38.742187-44.554688-3.242188-97.597656-57.808594-149.09375-158.304688-149.09375s-155.0625 51.496094-158.304688 149.09375c-21.859374 3.058594-38.742187 21.867188-38.742187 44.554688v64.511718c0 24.8125 20.1875 45 45 45h26.074219c2.859375 21.683594 11.398437 41.875 24.902344 58.824219v31.800781l-127.542969 54.265625c-16.632813 7.074219-27.3789065 23.324219-27.386719 41.398438v7.542969c0 3.980468 1.578125 7.796874 4.394531 10.609374 2.8125 2.8125 6.628907 4.394532 10.605469 4.394532h482c3.980469 0 7.796875-1.582032 10.609375-4.394532 2.8125-2.816406 4.390625-6.632812 4.390625-10.609374zm-184.910156-85.136718c.011718.359375.851562 36.765625-20.652344 59.160156-11.808594 12.292969-28.777344 18.523438-50.433594 18.523438-21.578125 0-38.503906-6.1875-50.304688-18.390626-21.761718-22.511718-20.789062-58.976562-20.78125-59.292968.011719-.203125.015626-.402344.015626-.605469v-14.851563c20.539062 12.996094 45.039062 19.976563 71.070312 19.976563s50.53125-6.980469 71.070312-19.976563v14.851563c0 .203125.003907.402344.015626.605469zm25.960937-124.175782-28.535156 19.027344c-9.0625 6.042969-19.613281 9.238282-30.511719 9.238282h-25.371094c-8.28125 0-15 6.714843-15 15 0 8.285156 6.71875 15 15 15h25.371094c16.839844 0 33.148438-4.9375 47.15625-14.28125l5.742188-3.828126c-13.535157 34.925782-48.152344 58.539063-90.898438 58.539063-55.324219 0-97.046875-39.550781-97.046875-92v-121.605469c5.914063-27.492187 14.480469-44.964844 24.808594-50.566406 10.285156-5.585938 25.230469.222656 39.683593 5.835938 11.261719 4.371093 21.898438 8.503906 32.554688 8.503906 10.753906 0 21.261719-4.175782 32.390625-8.59375 14.46875-5.75 28.136719-11.179688 38.261719-5.898438 7.378906 3.847656 17.898437 15.828125 26.394531 50.910156zm70-86.484374v64.511718c0 8.269532-6.730469 15-15 15h-25v-94.511718h25c8.269531 0 15 6.730468 15 15zm-268.609375-126.902344c20.773438-24.382813 54.941406-36.746094 101.5625-36.746094s80.789062 12.363281 101.5625 36.746094c16.355469 19.199218 25.316406 46.726562 26.703125 81.902344h-4.601563c-9.058593-32.171876-21.628906-51.613282-39.140624-60.746094-22.308594-11.632813-44.988282-2.625-63.210938 4.617187-8.015625 3.183594-16.304688 6.476563-21.316406 6.476563-5.035156 0-13.503906-3.289063-21.691406-6.46875-18.867188-7.332032-42.351563-16.453125-64.855469-4.242188-16.96875 9.210938-29.253907 29.019532-37.390625 60.363282h-4.324219c1.382813-35.175782 10.347656-62.703126 26.703125-81.902344zm-65.484375 191.414062v-64.511718c0-8.269532 6.730469-15 15-15h25v94.511718h-25c-8.269531 0-15-6.730468-15-15zm-49.824219 217.496094 117.519532-50c2.632812 16.277344 9.171874 38.425781 25.203124 56.339844h-149.867187c1.589844-2.777344 4.066406-5.03125 7.144531-6.339844zm291.019532 6.339844c16.03125-17.914063 22.570312-40.0625 25.203124-56.339844l117.519532 50c3.078125 1.308594 5.550781 3.5625 7.144531 6.339844zm0 0" fill="#323b3d" data-original="#000000" style="" class=""/></g></svg>
