<?xml version="1.0"?>
<svg xmlns="http://www.w3.org/2000/svg" xmlns:xlink="http://www.w3.org/1999/xlink" xmlns:svgjs="http://svgjs.com/svgjs" version="1.1" width="512" height="512" x="0" y="0" viewBox="0 0 480 480" style="enable-background:new 0 0 512 512" xml:space="preserve" class=""><g>
<g xmlns="http://www.w3.org/2000/svg">
	<g>
		<path d="M472,120h-48V8c0-4.424-3.576-8-8-8H8C3.576,0,0,3.576,0,8v352c0,4.424,3.576,8,8,8h72v53.264L63.088,433.2    c-10.128,7.152-12.672,20.832-5.8,31.16c4.36,6.528,11.608,10.088,18.976,10.088c1.384,0,2.768-0.176,4.144-0.432    C81.32,477.432,84.296,480,88,480h352c22.056,0,40-17.944,40-40V128C480,123.576,476.424,120,472,120z M16,16h392v48H16V16z     M16,352V80h392v40H88c-4.424,0-8,3.576-8,8v224H16z M79.84,457.4c-3.072,1.976-7.208,1.128-9.24-1.912    c-2.032-3.056-1.28-7.104,1.72-9.208L188.888,364c3,5.688,6.504,11.048,10.4,16.112L79.84,457.4z M192,312    c0-52.936,43.064-96,96-96c52.936,0,96,43.064,96,96c0,52.936-43.064,96-96,96C235.064,408,192,364.936,192,312z M464,440    c0,13.232-10.768,24-24,24H99.096l110.92-71.776C230.2,411.848,257.688,424,288,424c61.76,0,112-50.24,112-112s-50.24-112-112-112    s-112,50.24-112,112c0,12.968,2.328,25.376,6.4,36.976L96,409.968V184h368V440z M464,168H96v-32h368V168z" fill="#323b3d" data-original="#000000" style="" class=""/>
	</g>
</g>
<g xmlns="http://www.w3.org/2000/svg">
	<g>
		<path d="M344.424,261.464L319.68,335.68l-24.16-66.424c-1.192-3.296-4.304-5.52-7.928-5.256c-3.512,0.184-6.496,2.64-7.344,6.056    l-11.928,47.688L254.4,299.2c-1.488-1.984-3.8-3.168-6.272-3.2c-2.448-0.232-4.832,1.072-6.376,3l-32,40l12.496,10l25.552-31.936    l17.8,23.736c1.84,2.472,4.92,3.616,7.984,3.048c3.024-0.608,5.432-2.904,6.168-5.904l9.664-38.624l23.064,63.424    c1.152,3.152,4.16,5.256,7.52,5.256c0.04,0,0.072,0,0.112,0c3.4-0.048,6.408-2.24,7.48-5.472l32-96L344.424,261.464z" fill="#323b3d" data-original="#000000" style="" class=""/>
	</g>
</g>
<g xmlns="http://www.w3.org/2000/svg">
	<g>
		<rect x="32" y="32" width="16" height="16" fill="#323b3d" data-original="#000000" style="" class=""/>
	</g>
</g>
<g xmlns="http://www.w3.org/2000/svg">
	<g>
		<rect x="64" y="32" width="16" height="16" fill="#323b3d" data-original="#000000" style="" class=""/>
	</g>
</g>
<g xmlns="http://www.w3.org/2000/svg">
	<g>
		<rect x="96" y="32" width="16" height="16" fill="#323b3d" data-original="#000000" style="" class=""/>
	</g>
</g>
<g xmlns="http://www.w3.org/2000/svg">
</g>
<g xmlns="http://www.w3.org/2000/svg">
</g>
<g xmlns="http://www.w3.org/2000/svg">
</g>
<g xmlns="http://www.w3.org/2000/svg">
</g>
<g xmlns="http://www.w3.org/2000/svg">
</g>
<g xmlns="http://www.w3.org/2000/svg">
</g>
<g xmlns="http://www.w3.org/2000/svg">
</g>
<g xmlns="http://www.w3.org/2000/svg">
</g>
<g xmlns="http://www.w3.org/2000/svg">
</g>
<g xmlns="http://www.w3.org/2000/svg">
</g>
<g xmlns="http://www.w3.org/2000/svg">
</g>
<g xmlns="http://www.w3.org/2000/svg">
</g>
<g xmlns="http://www.w3.org/2000/svg">
</g>
<g xmlns="http://www.w3.org/2000/svg">
</g>
<g xmlns="http://www.w3.org/2000/svg">
</g>
</g></svg>
